<svg xmlns="http://www.w3.org/2000/svg"  viewBox="0 0 100 100" width="100px" height="100px" baseProfile="basic"><path fill="#e3e2e3" d="M97.47,63.78c0,6.77-5.48,12.25-12.25,12.25c-5.85,0-10.73-4.09-11.95-9.57 c-6.04,2.47-14.25,3.45-23.27,3.45s-17.23-0.98-23.27-3.45c-1.22,5.48-6.1,9.57-11.95,9.57c-6.77,0-12.25-5.48-12.25-12.25 c0-2.44,0.72-4.72,1.95-6.63c0.43-0.67,0.93-1.3,1.49-1.87c5.87-7.58,6.51-11.45,8.43-15.81c3.44-7.85,5.46-8.89,5.46-8.89 c2.48-2.48,7.55-2.32,10.45-0.17c5.54-3.88,12.34-6.44,19.69-6.44c7.45,0,14.34,2.63,19.92,6.6c0.15,0.11,0.29,0.21,0.44,0.32 c2.84-1.91,7-2.6,9.29-0.31c0,0,2.02,1.04,5.47,8.89c1.86,4.24,2.17,7.5,7.51,14.56C95.57,56.27,97.47,59.8,97.47,63.78z"/><ellipse cx="73.376" cy="60.766" fill="#f16e7c" rx="5.36" ry="3.063"/><ellipse cx="25.376" cy="60.766" fill="#f16e7c" rx="5.36" ry="3.063"/><ellipse cx="31.624" cy="48.766" fill="#31c4f3" rx="3.063" ry="5.36"/><ellipse cx="68.376" cy="48.766" fill="#31c4f3" rx="3.063" ry="5.36"/><path fill="#1f212b" d="M68.375,55.125c-2.278,0-4.062-2.793-4.062-6.359s1.785-6.359,4.062-6.359	c2.278,0,4.063,2.793,4.063,6.359S70.654,55.125,68.375,55.125z M68.375,44.406c-0.974,0-2.062,1.864-2.062,4.359	s1.089,4.359,2.062,4.359s2.063-1.864,2.063-4.359S69.349,44.406,68.375,44.406z"/><path fill="#1f212b" d="M55.359,53.594c-0.552,0-1,0.447-1,1s0.448,1,1,1c0.715,0,1.297,0.582,1.297,1.297 s-0.582,1.297-1.21,1.306c-0.262-0.071-1.071-0.675-1.677-1.247c-0.187-0.187-1.878-1.824-3.77-1.824 c-2.078,0-3.637,1.674-3.751,1.807c-0.624,0.591-1.431,1.193-1.608,1.256c-0.715,0-1.297-0.582-1.297-1.297 s0.582-1.297,1.297-1.297c0.552,0,1-0.447,1-1s-0.448-1-1-1c-1.818,0-3.297,1.479-3.297,3.297s1.479,3.297,3.297,3.297 c0.897,0,2.119-0.982,3.039-1.861c0.304-0.334,1.314-1.201,2.32-1.201c0.901,0,2.032,0.918,2.375,1.257 c0.869,0.824,2.093,1.806,2.984,1.806c1.818,0,3.297-1.479,3.297-3.297S57.178,53.594,55.359,53.594z"/><path fill="#1f212b" d="M94.049,53.928c-4.188-5.564-5.638-9.11-7.041-12.54c-0.319-0.78-0.633-1.547-0.972-2.32 c-3.083-7.016-5.109-8.84-5.763-9.277c-2.716-2.623-7.701-2.946-10.937-0.82C63.464,25.106,56.721,22.968,50,22.968 c-6.847,0-13.669,2.193-19.587,6.161C27.2,26.85,22.026,27.1,19.238,29.79c-0.654,0.438-2.679,2.262-5.753,9.276 c-0.438,0.994-0.8,1.937-1.184,2.934c-1.303,3.39-2.651,6.894-7.125,12.671c-0.454,0.594-0.948,1.206-1.471,1.848 c-0.023,0.029-0.045,0.06-0.065,0.091c-1.379,2.143-2.109,4.622-2.109,7.17c0,7.306,5.944,13.25,13.25,13.25 c5.87,0,10.912-3.751,12.631-9.252c5.636,2.069,13.192,3.13,22.589,3.13s16.953-1.061,22.589-3.13 c1.719,5.501,6.761,9.252,12.631,9.252c7.306,0,13.25-5.944,13.25-13.25C98.47,59.713,96.784,57.379,94.049,53.928z M85.22,75.029 c-5.036,0-9.35-3.254-10.764-8.005c6.751-2.99,10.233-7.677,10.233-13.962c0-2.785-0.81-5.54-2.794-9.51 c-0.247-0.493-0.847-0.695-1.342-0.447c-0.494,0.247-0.694,0.848-0.447,1.342c1.835,3.67,2.583,6.166,2.583,8.615 c0,3.424-1.224,6.136-3.286,8.281c0.049-0.188,0.081-0.38,0.081-0.578c0-1.998-2.574-3.562-5.859-3.562c-0.276,0-0.5,0.224-0.5,0.5 s0.224,0.5,0.5,0.5c2.634,0,4.859,1.174,4.859,2.562s-2.225,2.562-4.859,2.562s-4.86-1.174-4.86-2.562 c0-0.896,0.983-1.771,2.505-2.231c0.264-0.08,0.414-0.358,0.334-0.623c-0.079-0.265-0.357-0.417-0.623-0.334 c-1.983,0.599-3.216,1.82-3.216,3.188c0,1.998,2.574,3.562,5.86,3.562c0.801,0,1.558-0.094,2.247-0.264 c-6.54,3.807-16.74,4.843-25.872,4.843c-8.974,0-18.98-1-25.53-4.646c0.373,0.043,0.758,0.067,1.155,0.067 c0.276,0,0.5-0.224,0.5-0.5s-0.224-0.5-0.5-0.5c-2.634,0-4.86-1.174-4.86-2.562c0-0.693,0.576-1.375,1.582-1.871 c0.248-0.122,0.35-0.422,0.227-0.669c-0.122-0.248-0.42-0.352-0.669-0.228c-1.218,0.6-1.966,1.473-2.109,2.431 c-1.573-1.988-2.484-4.412-2.484-7.366c0-3.069,0.95-6.473,2.747-9.842c0.26-0.487,0.076-1.093-0.412-1.354 c-0.489-0.258-1.093-0.075-1.353,0.412c-1.951,3.658-2.982,7.387-2.982,10.783c0,6.285,3.482,10.972,10.233,13.962 c-1.414,4.751-5.728,8.005-10.764,8.005c-6.203,0-11.25-5.047-11.25-11.25c0-2.146,0.609-4.233,1.761-6.042 c0.523-0.642,1.017-1.256,1.469-1.846c4.651-6.006,6.116-9.813,7.408-13.173c0.375-0.976,0.729-1.896,1.148-2.848 c3.124-7.129,5.008-8.402,5.002-8.402c0,0,0,0,0,0c0.092-0.047,0.176-0.108,0.25-0.182c1.929-1.928,5.585-2.242,8.079-0.899 c-1.721,1.3-3.357,2.748-4.873,4.352c-0.379,0.401-0.362,1.034,0.04,1.413c0.193,0.183,0.44,0.273,0.687,0.273 c0.265,0,0.53-0.105,0.727-0.313C31.92,29.03,40.95,24.968,50,24.968c6.571,0,13.177,2.168,18.869,6.087 c0.012,0.007,0.022,0.016,0.034,0.022c1.898,1.31,3.695,2.814,5.353,4.499c0.388,0.396,1.021,0.397,1.414,0.012 c0.394-0.388,0.398-1.021,0.011-1.414c-1.416-1.438-2.93-2.745-4.518-3.927c2.487-1.178,5.931-0.809,7.779,1.04 c0.052,0.052,0.146,0.12,0.208,0.159c0.019,0.012,1.906,1.266,5.053,8.425c0.333,0.758,0.64,1.509,0.953,2.273 c1.383,3.382,2.951,7.215,7.31,13.006c2.845,3.591,4.003,5.376,4.003,8.629C96.47,69.982,91.423,75.029,85.22,75.029z"/><path fill="#1f212b" d="M31.625,42.406c-2.278,0-4.063,2.793-4.063,6.359s1.785,6.359,4.063,6.359 c2.278,0,4.062-2.793,4.062-6.359S33.902,42.406,31.625,42.406z M31.625,53.125c-0.974,0-2.063-1.864-2.063-4.359 s1.089-4.359,2.063-4.359s2.062,1.864,2.062,4.359S32.598,53.125,31.625,53.125z"/><path fill="#1f212b" d="M25.625,57.203c-0.133,0-0.264,0.002-0.394,0.007c-0.276,0.012-0.491,0.244-0.48,0.52 c0.011,0.276,0.277,0.484,0.519,0.48c0.117-0.005,0.236-0.007,0.355-0.007c2.634,0,4.859,1.174,4.859,2.562 c0,0.576-0.401,1.15-1.129,1.617c-0.232,0.149-0.3,0.458-0.151,0.69c0.096,0.149,0.257,0.23,0.421,0.23 c0.092,0,0.186-0.025,0.27-0.079c1.024-0.657,1.589-1.53,1.589-2.459C31.484,58.768,28.91,57.203,25.625,57.203z"/></svg>